# xmcd
#
# Track frame offsets: 
#        150
#        20538
#        36589
#        63909
#        74522
#        93059
#        124582
#        146456
#        165024
#        183663
#
# Disc length: 2773 seconds
#
# Revision: 6
# Processed by: cddbd v1.5.2PL0 Copyright (c) Steve Scherf et al.
# Submitted via: ExactAudioCopyFreeDBPlugin 1.0
#
DISCID=810ad30a
DTITLE=Eileen Rose - Long Shot Novena
DYEAR=2002
DGENRE=Country
TTITLE0=Long Shot Novena
TTITLE1=See How I Need You
TTITLE2=Good Man
TTITLE3=Snake
TTITLE4=Wheels Going By
TTITLE5=White Dove's Awake
TTITLE6=Two in One
TTITLE7=Tom Waits Crooning
TTITLE8=For Marlene
TTITLE9=Big Dog
EXTD=
EXTT0=
EXTT1=
EXTT2=
EXTT3=
EXTT4=
EXTT5=
EXTT6=
EXTT7=
EXTT8=
EXTT9=
PLAYORDER=
